<svg width="226" height="233" viewBox="0 0 226 233" fill="none" xmlns="http://www.w3.org/2000/svg">
<path fill-rule="evenodd" clip-rule="evenodd" d="M107.687 24.9088C144.863 24.9088 175.004 55.0455 175.004 92.2258C175.004 92.3519 175 92.4738 175 92.5957C175 92.7217 175.004 92.8436 175.004 92.9697C175.004 129.738 145.195 159.543 108.427 159.543C108.305 159.543 108.179 159.539 108.057 159.539C107.931 159.539 107.809 159.543 107.687 159.543C70.5069 159.543 40.366 129.406 40.366 92.2258C40.366 55.0455 70.5069 24.9088 107.687 24.9088ZM109.465 28.6533C145.069 28.6533 173.966 57.3359 174.324 92.8562C174.281 129.045 144.935 158.37 108.738 158.37C108.372 158.37 108.011 158.362 107.649 158.358C72.6671 157.395 44.6022 128.734 44.6022 93.516C44.6022 57.6932 73.6421 28.6533 109.465 28.6533Z" fill="#E61C2D"/>
<path d="M39.9035 208.381H32.7718L29.0819 199.304H11.7966L8.15719 208.381H1.02539L14.5661 176.118C15.2175 174.58 15.9614 173.521 16.7977 172.941C17.634 172.361 18.857 172.067 20.4666 172.067C22.0047 172.067 23.2109 172.369 24.0808 172.966C24.9507 173.563 25.7114 174.618 26.3628 176.118L39.9035 208.381ZM27.3378 194.479L21.492 179.862C21.0802 178.871 20.7397 178.375 20.4666 178.375C20.1934 178.375 19.8488 178.871 19.4411 179.862L13.5407 194.479H27.3378ZM70.3513 195.761C70.3513 199.762 69.3049 202.821 67.2204 204.944C64.724 207.507 60.5719 208.789 54.7597 208.789C48.9475 208.789 44.7912 207.507 42.2948 204.944C40.2103 202.821 39.1681 199.762 39.1681 195.761V172.478H45.9385V194.84C45.9385 197.744 46.5184 199.833 47.6825 201.098C49.082 202.636 51.4439 203.405 54.7597 203.405C58.1092 203.405 60.4836 202.636 61.8873 201.098C63.0136 199.867 63.5809 197.778 63.5809 194.84V172.478H70.3513V195.761ZM107.258 208.381H98.744L86.9473 196.736C85.821 195.61 85.2579 194.601 85.2579 193.71V192.89C85.2579 191.247 86.2665 190.428 88.2838 190.428H95.0541C96.8318 190.428 98.0632 189.898 98.744 188.839C99.2946 187.986 99.5677 186.343 99.5677 183.918C99.5677 181.455 99.1391 179.795 98.2859 178.942C97.5673 178.223 96.3023 177.862 94.491 177.862H83.5138C82.7616 177.862 82.1522 178.06 81.6941 178.455C81.2318 178.845 81.0007 179.505 81.0007 180.43V208.381H74.2303V178.581C74.2303 176.429 74.7262 174.87 75.718 173.916C76.7098 172.958 78.1471 172.478 80.0257 172.478H97.0546C100.711 172.478 103.274 173.571 104.745 175.761C105.943 177.538 106.54 180.173 106.54 183.657C106.54 187.146 106.027 189.848 105.002 191.76C103.669 194.223 101.413 195.454 98.2313 195.454H93.6169V195.71L107.258 208.381ZM145.452 190.428C145.452 197.471 144.082 202.329 141.346 204.994C139.639 206.671 137.278 207.78 134.269 208.327C132.558 208.633 130.15 208.789 127.04 208.789C123.892 208.789 121.463 208.633 119.757 208.327C116.815 207.78 114.457 206.654 112.68 204.944C110.898 203.233 109.704 200.825 109.087 197.711C108.746 195.967 108.574 193.542 108.574 190.428C108.574 187.179 108.78 184.599 109.192 182.687C109.805 179.778 110.986 177.496 112.73 175.836C114.474 174.181 116.815 173.075 119.757 172.529C121.43 172.222 123.859 172.067 127.04 172.067C130.184 172.067 132.613 172.222 134.323 172.529C137.261 173.075 139.602 174.189 141.346 175.862C144.082 178.497 145.452 183.351 145.452 190.428ZM138.475 190.428C138.475 185.54 137.74 182.191 136.269 180.375C134.697 178.429 131.604 177.454 126.985 177.454C122.405 177.454 119.354 178.404 117.832 180.3C116.311 182.199 115.55 185.574 115.55 190.428C115.55 195.215 116.286 198.551 117.757 200.43C118.715 201.661 120.047 202.498 121.757 202.943C122.985 203.25 124.729 203.405 126.985 203.405C129.242 203.405 130.986 203.25 132.218 202.943C133.928 202.498 135.277 201.661 136.269 200.43C137.74 198.585 138.475 195.248 138.475 190.428ZM181.333 208.381H172.819L161.022 196.736C159.896 195.61 159.333 194.601 159.333 193.71V192.89C159.333 191.247 160.341 190.428 162.359 190.428H169.129C170.907 190.428 172.138 189.898 172.819 188.839C173.369 187.986 173.643 186.343 173.643 183.918C173.643 181.455 173.214 179.795 172.357 178.942C171.642 178.223 170.377 177.862 168.562 177.862H157.589C156.836 177.862 156.227 178.06 155.769 178.455C155.307 178.845 155.076 179.505 155.076 180.43V208.381H148.305V178.581C148.305 176.429 148.801 174.87 149.793 173.916C150.785 172.958 152.222 172.478 154.101 172.478H171.129C174.786 172.478 177.349 173.571 178.82 175.761C180.018 177.538 180.615 180.173 180.615 183.657C180.615 187.146 180.102 189.848 179.077 191.76C177.744 194.223 175.488 195.454 172.306 195.454H167.692V195.71L181.333 208.381ZM217.934 208.381H210.806L207.112 199.304H189.831L186.187 208.381H179.06L192.6 176.118C193.248 174.58 193.992 173.521 194.832 172.941C195.668 172.361 196.891 172.067 198.497 172.067C200.035 172.067 201.241 172.369 202.111 172.966C202.985 173.563 203.746 174.618 204.397 176.118L217.934 208.381ZM205.368 194.479L199.522 179.862C199.114 178.871 198.77 178.375 198.497 178.375C198.224 178.375 197.883 178.871 197.471 179.862L191.575 194.479H205.368Z" fill="#FEFEFE"/>
<path d="M13.0154 232.823H6.4972C4.28664 232.823 2.65183 232.227 1.59278 231.033C0.529526 229.844 0 227.936 0 225.313C0 222.485 0.500108 220.48 1.50453 219.304C2.60981 218.005 4.29505 217.358 6.56444 217.358H12.7717V219.678H7.93449C6.90065 219.678 6.12317 219.753 5.59365 219.901C4.84138 220.106 4.26563 220.51 3.87058 221.115C3.29483 221.968 3.00485 223.355 3.00485 225.267C3.00485 227.02 3.2486 228.272 3.7361 229.024C4.3833 230.012 5.73233 230.504 7.77899 230.504H13.0154V232.823ZM29.4686 225.091C29.4686 228.125 28.8802 230.218 27.7035 231.365C26.9638 232.088 25.951 232.567 24.6524 232.802C23.9169 232.937 22.8789 233 21.5383 233C20.1808 233 19.1344 232.937 18.3989 232.802C17.134 232.567 16.1169 232.08 15.3521 231.344C14.583 230.609 14.0703 229.571 13.8055 228.23C13.6584 227.478 13.5828 226.431 13.5828 225.091C13.5828 223.691 13.671 222.578 13.8475 221.754C14.1123 220.501 14.6208 219.518 15.3731 218.804C16.1253 218.089 17.134 217.614 18.3989 217.379C19.1218 217.249 20.1682 217.181 21.5383 217.181C22.8915 217.181 23.938 217.249 24.6734 217.379C25.9426 217.614 26.9512 218.093 27.7035 218.816C28.8802 219.951 29.4686 222.044 29.4686 225.091ZM26.4637 225.091C26.4637 222.985 26.1485 221.54 25.5139 220.762C24.8373 219.922 23.5051 219.501 21.5131 219.501C19.542 219.501 18.2266 219.909 17.571 220.728C16.9154 221.544 16.5876 222.998 16.5876 225.091C16.5876 227.154 16.9028 228.591 17.5374 229.398C17.9493 229.928 18.525 230.294 19.2605 230.483C19.7942 230.617 20.5423 230.68 21.5131 230.68C22.4881 230.68 23.2403 230.617 23.7698 230.483C24.5053 230.294 25.0853 229.928 25.5139 229.398C26.1485 228.604 26.4637 227.167 26.4637 225.091ZM45.5014 230.815C45.5014 232.273 44.7366 233 43.2068 233C42.0847 233 41.2526 232.567 40.7105 231.697L34.1923 221.401C34.0284 221.153 33.9107 221.027 33.835 221.027C33.6291 221.027 33.5283 221.174 33.5283 221.468V232.823H30.6999V219.279C30.6999 218.619 30.91 218.102 31.3303 217.732C31.7506 217.366 32.3263 217.181 33.066 217.181C34.1839 217.181 34.9992 217.585 35.5161 218.396L42.0763 228.76C42.2402 229.012 42.3579 229.134 42.4335 229.134C42.5932 229.134 42.6731 229.012 42.6731 228.76V217.358H45.5014V230.815ZM59.7482 228.848C59.7482 230.1 59.4919 231.058 58.9749 231.718C58.3992 232.458 57.4788 232.823 56.2138 232.823H46.7118V230.504H55.2851C56.2559 230.504 56.7434 229.945 56.7434 228.827C56.7434 227.969 56.2433 227.39 55.2388 227.079L49.1409 225.158C48.3466 224.906 47.7372 224.523 47.3085 224.011C46.779 223.376 46.5143 222.405 46.5143 221.09C46.5143 219.795 46.8421 218.837 47.5061 218.219C48.1239 217.644 48.9728 217.358 50.0486 217.358H58.9539V219.678H51.0405C50.4815 219.678 50.0739 219.8 49.8175 220.043C49.5569 220.287 49.4309 220.678 49.4309 221.224C49.4309 222.077 49.9058 222.662 50.8639 222.968L56.5206 224.759C57.5671 225.099 58.3025 225.469 58.7312 225.864C59.4078 226.515 59.7482 227.507 59.7482 228.848ZM74.1925 227.39C74.1925 229.113 73.7428 230.432 72.8435 231.344C71.7676 232.449 69.9773 233 67.4726 233C64.9678 233 63.1817 232.449 62.1059 231.344C61.2065 230.432 60.7568 229.113 60.7568 227.39V217.358H63.6734V226.99C63.6734 228.243 63.9256 229.142 64.4257 229.688C65.0267 230.348 66.0437 230.68 67.4726 230.68C68.9183 230.68 69.9395 230.348 70.5447 229.688C71.0322 229.159 71.2759 228.259 71.2759 226.99V217.358H74.1925V227.39ZM88.1913 232.823H77.853C77.2184 232.823 76.7393 232.693 76.4157 232.428C76.0459 232.134 75.8609 231.706 75.8609 231.147V217.358H78.7775V229.663C78.7775 229.991 78.8532 230.209 79.0003 230.327C79.1474 230.445 79.3827 230.504 79.7063 230.504H88.1913V232.823ZM101.551 219.678H95.4996V232.823H92.5831V219.678H86.5481V217.358H101.551V219.678ZM104.594 232.823H101.677V217.358H104.594V232.823ZM121.068 230.815C121.068 232.273 120.303 233 118.769 233C117.652 233 116.819 232.567 116.273 231.697L109.759 221.401C109.595 221.153 109.477 221.027 109.402 221.027C109.196 221.027 109.095 221.174 109.095 221.468V232.823H106.267V219.279C106.267 218.619 106.477 218.102 106.897 217.732C107.313 217.366 107.893 217.181 108.629 217.181C109.751 217.181 110.566 217.585 111.083 218.396L117.643 228.76C117.807 229.012 117.925 229.134 118 229.134C118.16 229.134 118.24 229.012 118.24 228.76V217.358H121.068V230.815ZM136.597 230.836C136.597 231.529 136.408 232.033 136.034 232.349C135.655 232.668 135.151 232.823 134.516 232.823H127.935C126.506 232.823 125.304 232.42 124.334 231.609C123.493 230.903 122.917 229.907 122.611 228.625C122.4 227.759 122.3 226.608 122.3 225.179C122.3 223.574 122.434 222.3 122.699 221.359C123.094 219.989 123.8 218.972 124.817 218.308C125.792 217.673 127.036 217.358 128.553 217.358H136.244V219.678H129.373C127.704 219.678 126.565 220.237 125.943 221.359C125.519 222.136 125.304 223.384 125.304 225.091C125.304 226.801 125.51 228.066 125.922 228.89C126.452 229.966 127.439 230.504 128.885 230.504H132.663C133.016 230.504 133.273 230.424 133.436 230.26C133.596 230.1 133.68 229.835 133.68 229.466V225.246H136.597V230.836ZM156.828 230.836C156.828 231.529 156.639 232.033 156.265 232.349C155.887 232.668 155.382 232.823 154.748 232.823H148.167C146.738 232.823 145.536 232.42 144.565 231.609C143.724 230.903 143.149 229.907 142.842 228.625C142.636 227.759 142.531 226.608 142.531 225.179C142.531 223.574 142.665 222.3 142.93 221.359C143.325 219.989 144.035 218.972 145.052 218.308C146.023 217.673 147.267 217.358 148.784 217.358H156.475V219.678H149.604C147.935 219.678 146.796 220.237 146.179 221.359C145.75 222.136 145.536 223.384 145.536 225.091C145.536 226.801 145.742 228.066 146.153 228.89C146.687 229.966 147.671 230.504 149.116 230.504H152.894C153.247 230.504 153.504 230.424 153.668 230.26C153.827 230.1 153.911 229.835 153.911 229.466V225.246H156.828V230.836ZM172.285 232.823H168.621L163.535 227.81C163.048 227.322 162.808 226.889 162.808 226.507V226.15C162.808 225.444 163.241 225.091 164.111 225.091H167.028C167.793 225.091 168.322 224.864 168.621 224.406C168.856 224.04 168.974 223.33 168.974 222.288C168.974 221.224 168.789 220.51 168.419 220.14C168.112 219.833 167.566 219.678 166.784 219.678H162.056C161.732 219.678 161.472 219.762 161.27 219.934C161.073 220.102 160.972 220.384 160.972 220.783V232.823H158.055V219.989C158.055 219.06 158.27 218.388 158.698 217.976C159.123 217.564 159.745 217.358 160.552 217.358H167.889C169.465 217.358 170.571 217.829 171.205 218.77C171.718 219.539 171.978 220.674 171.978 222.174C171.978 223.679 171.756 224.843 171.314 225.666C170.739 226.726 169.768 227.255 168.398 227.255H166.41V227.369L172.285 232.823ZM188.738 225.091C188.738 228.125 188.15 230.218 186.973 231.365C186.234 232.088 185.221 232.567 183.922 232.802C183.187 232.937 182.149 233 180.808 233C179.451 233 178.408 232.937 177.669 232.802C176.404 232.567 175.387 232.08 174.622 231.344C173.857 230.609 173.34 229.571 173.075 228.23C172.928 227.478 172.853 226.431 172.853 225.091C172.853 223.691 172.941 222.578 173.117 221.754C173.382 220.501 173.891 219.518 174.643 218.804C175.395 218.089 176.404 217.614 177.669 217.379C178.392 217.249 179.438 217.181 180.808 217.181C182.161 217.181 183.208 217.249 183.943 217.379C185.212 217.614 186.221 218.093 186.973 218.816C188.15 219.951 188.738 222.044 188.738 225.091ZM185.733 225.091C185.733 222.985 185.418 221.54 184.784 220.762C184.107 219.922 182.775 219.501 180.787 219.501C178.812 219.501 177.496 219.909 176.841 220.728C176.185 221.544 175.857 222.998 175.857 225.091C175.857 227.154 176.177 228.591 176.807 229.398C177.219 229.928 177.795 230.294 178.53 230.483C179.064 230.617 179.812 230.68 180.787 230.68C181.758 230.68 182.51 230.617 183.04 230.483C183.775 230.294 184.359 229.928 184.784 229.398C185.418 228.604 185.733 227.167 185.733 225.091ZM203.405 227.39C203.405 229.113 202.956 230.432 202.056 231.344C200.98 232.449 199.19 233 196.685 233C194.181 233 192.395 232.449 191.319 231.344C190.419 230.432 189.97 229.113 189.97 227.39V217.358H192.886V226.99C192.886 228.243 193.138 229.142 193.639 229.688C194.24 230.348 195.257 230.68 196.685 230.68C198.131 230.68 199.152 230.348 199.757 229.688C200.245 229.159 200.489 228.259 200.489 226.99V217.358H203.405V227.39ZM218.951 222.351C218.951 224.444 218.501 225.856 217.602 226.595C216.984 227.095 216.198 227.348 215.24 227.348H207.99V232.823H205.074V219.678C205.074 218.883 205.263 218.295 205.637 217.921C206.015 217.547 206.587 217.358 207.352 217.358H214.71C216.122 217.358 217.148 217.669 217.778 218.287C218.56 219.039 218.951 220.392 218.951 222.351ZM215.946 222.33C215.946 221.3 215.769 220.598 215.416 220.233C215.063 219.863 214.45 219.678 213.584 219.678H208.877C208.554 219.678 208.322 219.745 208.192 219.875C208.058 220.01 207.99 220.254 207.99 220.607V225.023H213.538C214.467 225.023 215.101 224.834 215.437 224.452C215.778 224.069 215.946 223.359 215.946 222.33Z" fill="#E61C2D"/>
<path fill-rule="evenodd" clip-rule="evenodd" d="M54.4068 49.5527L49.7966 0.508513L55.2936 48.9223L56.1131 48.935L95.7687 0L56.4325 49.931L87.851 50.9396L56.8527 51.301L140.421 123.981L55.9912 52.3559L67.2163 118.967L54.6422 53.0115L7.59839 121.48L53.7554 51.591L20.8113 55.6885L53.8731 50.3302L12.133 7.53104L54.4068 49.5527Z" fill="white"/>
<path d="M218.19 162.544C219.409 162.544 220.602 162.859 221.762 163.485C222.922 164.107 223.83 165.006 224.477 166.17C225.124 167.335 225.452 168.549 225.452 169.814C225.452 171.066 225.133 172.273 224.49 173.424C223.855 174.58 222.96 175.479 221.804 176.114C220.653 176.757 219.447 177.076 218.19 177.076C216.934 177.076 215.727 176.757 214.576 176.114C213.42 175.479 212.525 174.58 211.882 173.424C211.243 172.273 210.92 171.066 210.92 169.814C210.92 168.549 211.243 167.335 211.895 166.17C212.55 165.006 213.458 164.107 214.618 163.485C215.782 162.859 216.971 162.544 218.19 162.544ZM218.19 163.746C217.169 163.746 216.173 164.01 215.206 164.531C214.244 165.057 213.487 165.805 212.941 166.776C212.395 167.751 212.122 168.763 212.122 169.814C212.122 170.86 212.391 171.865 212.929 172.823C213.462 173.781 214.21 174.529 215.177 175.067C216.139 175.601 217.144 175.874 218.19 175.874C219.237 175.874 220.241 175.601 221.203 175.067C222.166 174.529 222.918 173.781 223.448 172.823C223.981 171.865 224.246 170.86 224.246 169.814C224.246 168.763 223.973 167.751 223.435 166.776C222.889 165.805 222.136 165.057 221.166 164.531C220.195 164.01 219.203 163.746 218.19 163.746ZM215 173.823V166.015H217.69C218.61 166.015 219.274 166.086 219.682 166.229C220.098 166.376 220.422 166.624 220.67 166.986C220.913 167.347 221.035 167.725 221.035 168.129C221.035 168.7 220.829 169.196 220.422 169.621C220.01 170.041 219.472 170.281 218.791 170.331C219.068 170.449 219.291 170.583 219.455 170.747C219.775 171.05 220.157 171.567 220.615 172.294L221.565 173.823H220.035L219.337 172.592C218.791 171.625 218.35 171.016 218.014 170.772C217.783 170.596 217.45 170.507 217.005 170.512H216.261V173.823H215ZM216.261 169.427H217.795C218.526 169.427 219.026 169.318 219.291 169.1C219.56 168.881 219.695 168.595 219.695 168.238C219.695 168.011 219.627 167.801 219.501 167.62C219.371 167.435 219.195 167.301 218.968 167.213C218.736 167.124 218.316 167.078 217.698 167.078H216.261V169.427Z" fill="#FEFEFE"/>
</svg>
