<svg width="60" height="26" viewBox="0 0 60 26" fill="none" xmlns="http://www.w3.org/2000/svg">
<path d="M59.5687 5.43562C59.5687 5.43562 59.2201 2.9677 58.1488 1.88095C56.7907 0.454726 55.2683 0.447734 54.5703 0.364616C49.5727 0.00184631 42.0755 0.00184631 42.0755 0.00184631H42.06C42.06 0.00184631 34.5628 0.00184631 29.5652 0.364616C28.8665 0.447734 27.3448 0.454726 25.9867 1.88095C24.9154 2.9677 24.5668 5.43562 24.5668 5.43562C24.5668 5.43562 24.2097 8.33389 24.2097 11.2314V13.9487C24.2097 16.8462 24.5668 19.7444 24.5668 19.7444C24.5668 19.7444 24.9154 22.2124 25.9867 23.2991C27.3448 24.7253 29.1302 24.6803 29.9246 24.8294C32.782 25.1044 42.0677 25.1899 42.0677 25.1899C42.0677 25.1899 49.5727 25.1782 54.5703 24.8162C55.2683 24.7323 56.7907 24.7253 58.1488 23.2991C59.2201 22.2124 59.5687 19.7444 59.5687 19.7444C59.5687 19.7444 59.925 16.8462 59.925 13.9487V11.2314C59.925 8.33389 59.5687 5.43562 59.5687 5.43562Z" fill="#E61C2D"/>
<path d="M22.3667 20.3853H20.0938V19.0601C19.2324 20.0544 18.502 20.557 17.7061 20.557C17.0073 20.557 16.523 20.2253 16.2793 19.6256C16.132 19.2605 16.0271 18.6911 16.0271 17.8553V8.2174H18.2999V17.2532C18.2999 17.7644 18.2999 17.9757 18.2999 18.0961C18.3532 18.434 18.4951 18.5575 18.7843 18.5575C19.2193 18.5575 19.6134 18.1769 20.0938 17.4941V8.2174H22.3667V20.3853ZM5.38247 13.7592V20.3853H2.99009V13.7592C2.99009 13.7592 0.511331 5.63529 0 4.12129H2.51192L4.19014 10.467L5.86064 4.12129H8.37256L5.38247 13.7592ZM12.0807 16.7708C12.2002 17.9757 11.8293 18.5738 11.1236 18.5738C10.4179 18.5738 10.0469 17.9757 10.1665 16.7708V11.9523C10.0469 10.7475 10.4179 10.1827 11.1236 10.1827C11.8293 10.1827 12.201 10.7475 12.0814 11.9523L12.0807 16.7708ZM14.3527 12.1931C14.3527 10.8927 14.0936 9.91628 13.6355 9.30183C13.0301 8.46987 12.0807 8.12885 11.1236 8.12885C10.0408 8.12885 9.2163 8.46987 8.61165 9.30183C8.14582 9.91628 7.89671 10.9036 7.89671 12.204L7.8944 16.53C7.8944 17.8226 8.11651 18.716 8.58234 19.325C9.18622 20.1546 10.1665 20.5943 11.1236 20.5943C12.0807 20.5943 13.0779 20.1546 13.6833 19.325C14.1414 18.716 14.3527 17.8226 14.3527 16.53V12.1931Z" fill="white"/>
<path d="M52.627 11.5856C52.627 10.46 52.9331 10.1524 53.6566 10.1524C54.3746 10.1524 54.6599 10.4872 54.6599 11.6004V12.9163L52.627 12.9179V11.5856ZM32.0549 20.3853H29.6626V6.53094H27.1506V4.24479L34.6856 4.24246V6.53094H32.0549V20.3853ZM40.6666 20.3853H38.3937V19.0601C37.5323 20.0544 36.8019 20.557 36.006 20.557C35.3073 20.557 34.8221 20.2253 34.5792 19.6256C34.4319 19.2605 34.327 18.6911 34.327 17.8553V8.3378H36.5998V17.2532C36.5998 17.7644 36.5998 17.9757 36.5998 18.0961C36.6531 18.434 36.795 18.5575 37.0842 18.5575C37.5192 18.5575 37.9125 18.1768 38.3937 17.494V8.3378H40.6666V20.3853ZM46.6468 16.8912C46.6468 18.0961 46.3645 18.5575 45.7398 18.5575C45.3835 18.5575 44.9732 18.3726 44.6107 18.0083L44.613 10.7024C44.9755 10.342 45.3835 10.1524 45.7398 10.1524C46.3645 10.1524 46.6468 10.5066 46.6468 11.7115V16.8912ZM46.899 8.14515C46.1023 8.14515 45.3102 8.63842 44.6107 9.50534L44.613 4.24246H42.4605V20.3853H44.613L44.6161 19.1719C45.3395 20.0738 46.1285 20.5407 46.899 20.5407C47.7604 20.5407 48.3905 20.0754 48.6798 19.1805C48.8248 18.6701 48.9188 17.884 48.9188 16.7708V11.9523C48.9188 10.8119 48.7738 10.032 48.6296 9.54806C48.3404 8.64619 47.7604 8.14515 46.899 8.14515ZM56.9366 14.7232V12.2599C56.9366 10.9735 56.6852 10.032 56.2317 9.42377C55.6248 8.59958 54.7633 8.16379 53.6766 8.16379C52.5714 8.16379 51.7092 8.59958 51.0829 9.42377C50.6225 10.032 50.3541 11.0271 50.3541 12.3135V16.53C50.3541 17.8094 50.6495 18.7051 51.1092 19.3071C51.7354 20.1297 52.5976 20.5407 53.7306 20.5407C54.862 20.5407 55.7505 20.1095 56.3497 19.2356C56.6127 18.8496 56.7824 18.4122 56.8557 17.9283C56.8749 17.71 56.9328 17.2128 56.9328 16.5098V16.1688H54.6599C54.6599 17.0435 54.6638 17.5639 54.6445 17.6828C54.5203 18.2654 54.2095 18.5575 53.6766 18.5575C52.9331 18.5575 52.6192 17.9982 52.627 16.8866V14.7232H56.9366Z" fill="#1D1D1D"/>
</svg>
