<svg width="34" height="34" viewBox="0 0 34 34" fill="none" xmlns="http://www.w3.org/2000/svg">
<path d="M10.4056 3.28238C7.21325 3.28238 4.6162 5.87915 4.6162 9.07119V21.6093C4.6162 24.8016 7.21325 27.3987 10.4056 27.3987H22.9434C26.1357 27.3987 28.7325 24.8016 28.7325 21.6093V9.07119C28.7325 5.87915 26.1357 3.28238 22.9434 3.28238H10.4056ZM26.2377 7.46155C26.2377 8.4509 25.4357 9.25267 24.4466 9.25267C23.4575 9.25267 22.6552 8.4509 22.6552 7.46155C22.6552 6.47248 23.4575 5.67016 24.4466 5.67016C25.4357 5.67016 26.2377 6.47248 26.2377 7.46155ZM16.6743 10.3826C13.9408 10.3826 11.7167 12.6067 11.7167 15.3405C11.7167 18.074 13.9408 20.2981 16.6743 20.2981C19.4081 20.2981 21.6322 18.074 21.6322 15.3405C21.6322 12.6067 19.4081 10.3826 16.6743 10.3826ZM16.6743 22.7926C12.5652 22.7926 9.22197 19.4499 9.22197 15.3405C9.22197 11.2311 12.5652 7.88786 16.6743 7.88786C20.7835 7.88786 24.127 11.2311 24.127 15.3405C24.127 19.4499 20.7835 22.7926 16.6743 22.7926ZM22.9434 29.8934H10.4056C5.83788 29.8934 2.1217 26.1772 2.1217 21.6093V9.07119C2.1217 4.50378 5.83788 0.787598 10.4056 0.787598H22.9434C27.5111 0.787598 31.2275 4.50378 31.2275 9.07119V21.6093C31.2275 26.1772 27.5111 29.8934 22.9434 29.8934Z" fill="url(#paint0_linear)"/>
<defs>
<linearGradient id="paint0_linear" x1="16.6746" y1="29.8934" x2="16.6746" y2="0.787598" gradientUnits="userSpaceOnUse">
<stop stop-color="#E61C2D"/>
</linearGradient>
</defs>
</svg>
