<svg width="18" height="16" viewBox="0 0 18 16" fill="none" xmlns="http://www.w3.org/2000/svg">
<path fill-rule="evenodd" clip-rule="evenodd" d="M4.95841 3.03016C4.91517 3.08044 4.94254 3.05507 4.87907 3.09004C4.84778 3.10718 4.84732 3.10284 4.81006 3.1273C4.73784 3.17507 4.74888 3.1913 4.6647 3.22536C4.65458 3.2569 4.66194 3.2489 4.63066 3.25941C4.59984 3.33393 4.57961 3.33827 4.5343 3.40524C4.49818 3.4585 4.47173 3.51953 4.45241 3.55633C4.37973 3.86307 4.30797 4.07747 4.50255 4.42947L4.54142 4.5305C4.61456 4.5865 4.6739 4.6617 4.74382 4.72181C4.81696 4.78513 4.8809 4.82238 4.97911 4.8697C5.07732 4.91038 5.12218 4.92433 5.23672 4.93713L5.55872 4.91313C5.9212 4.82238 6.19949 4.52478 6.28574 4.14741C6.29517 4.0649 6.29724 4.09713 6.31541 4.07701C6.27493 3.9177 6.32231 3.78696 6.24043 3.59861C6.18155 3.46261 6.06655 3.3177 6.04447 3.26261L5.91774 3.1689C5.78687 3.10444 5.66888 3.01873 5.48166 2.98718C5.21785 2.94216 5.11205 3.03701 4.95841 3.03016ZM13.6628 8.65964C13.6237 8.70193 13.5222 8.74193 13.4774 8.7737C13.4134 8.8185 13.3762 8.85256 13.3272 8.90284C13.2237 9.00981 13.1722 9.15198 13.1545 9.33187C13.0889 9.6233 13.3249 9.91747 13.4946 10.0222C13.6117 10.0939 13.7495 10.1438 13.9314 10.1284C14.0903 10.115 14.1922 10.0356 14.3121 9.98787C14.3247 9.96776 14.319 9.9769 14.3415 9.95381C14.8148 9.46673 14.5352 9.22238 14.5207 9.00136C14.4195 8.9497 14.4772 8.90513 14.2987 8.79518C14.2539 8.76821 14.2125 8.73873 14.1644 8.7161L14.0098 8.64341L13.6628 8.65964ZM10.1527 8.69141C10.1249 8.71998 10.0773 8.73141 10.0416 8.75198C10.0012 8.77416 9.96115 8.8041 9.92757 8.83107C9.86639 8.88113 9.81808 8.95336 9.77139 9.03244C9.69779 9.17553 9.68445 9.22947 9.67663 9.41667C9.68146 9.5065 9.7185 9.59701 9.71482 9.67153C9.80613 9.74901 9.90203 10.0791 10.3671 10.1236C10.6054 10.1472 10.7103 10.075 10.8667 9.97736C10.9886 9.90078 11.0829 9.7657 11.1374 9.58787L11.1647 9.31038C11.0852 8.9481 10.8604 8.68273 10.4531 8.64913L10.1527 8.69141ZM15.8411 11.3154L15.7799 11.5287C15.6525 11.8368 15.5474 12.045 15.3707 12.3195C15.3372 12.3716 15.2682 12.5072 15.2162 12.5316C15.1637 12.6617 15.092 12.6455 15.1171 12.8009C15.1348 12.9104 15.1633 13.0114 15.1778 13.1152C15.1016 13.0923 14.9837 13.0219 14.9135 12.9817C14.7955 12.9129 14.8052 12.9908 14.6603 13.0459C14.589 13.1755 13.2564 13.7545 12.9925 13.7204L12.8568 13.77C12.8044 13.7787 12.7591 13.7856 12.7071 13.7927C12.6103 13.8027 12.5063 13.8347 12.4129 13.8059C12.389 13.8212 12.427 13.808 12.363 13.829C12.3433 13.8352 12.3437 13.8315 12.3205 13.8324L11.6981 13.8137C11.6447 13.811 11.5923 13.8084 11.5417 13.8014C11.5194 13.7979 11.4872 13.7918 11.4651 13.7856C11.4111 13.7691 11.4371 13.7787 11.4122 13.763C11.3087 13.7787 11.1406 13.7433 11.0539 13.7022C10.9596 13.6916 10.8464 13.6692 10.7684 13.6142C10.5976 13.6299 9.89192 13.2679 9.79072 13.1716C9.47631 13.0464 8.85002 12.3908 8.71386 12.0626C8.62232 12.0052 8.47995 11.5762 8.44338 11.4345C8.37506 11.1684 8.34793 10.8852 8.37507 10.5906C8.39945 10.3319 8.47121 10.0697 8.5593 9.85873C8.61266 9.73233 8.80861 9.35816 8.88566 9.31038C8.95029 9.17118 9.03678 9.10696 9.12878 8.99793C9.21894 8.89027 9.30082 8.81416 9.42249 8.73667C9.44043 8.67221 9.77047 8.45736 9.83303 8.41758C9.96367 8.33393 10.1668 8.2185 10.3213 8.15633C10.6042 8.0425 11.2404 7.79998 11.4766 7.8441C11.4824 7.84067 11.4893 7.83724 11.4939 7.83587L11.7409 7.79564C12.102 7.78376 12.3697 7.77758 12.7283 7.81713L13.0572 7.88661C13.2223 7.86513 13.5471 7.9977 13.6945 8.04867L13.9963 8.18764C14.1649 8.20181 14.6727 8.55358 14.8339 8.68936L15.1879 9.01941C15.2215 9.05347 15.2488 9.09598 15.2845 9.1385C15.5002 9.39541 15.653 9.6649 15.7799 9.99313L15.8439 10.2059C15.9181 10.528 15.975 11.0098 15.8411 11.3154ZM12.6639 6.43313C12.364 6.40204 12.0891 6.39976 11.7839 6.40913C11.6698 6.41553 11.5325 6.45027 11.4256 6.42467C11.4203 6.42833 11.4127 6.43084 11.4083 6.43313C11.3255 6.46673 10.9244 6.52318 10.7434 6.57004C10.5196 6.62833 10.3416 6.6873 10.1311 6.75564C10.0262 6.80593 9.92021 6.83313 9.80084 6.8905C9.71091 6.93347 9.57451 7.00684 9.49286 7.03061C9.40523 7.09347 9.26608 7.16616 9.16649 7.22216C9.05425 7.2857 8.96846 7.3689 8.86128 7.41164C8.67774 7.57507 8.46155 7.7225 8.30032 7.87518C8.21706 7.95358 7.86032 8.37895 7.8318 8.39267C7.77315 8.50627 7.69909 8.58467 7.63124 8.70193C7.57673 8.79518 7.51854 8.90901 7.4454 9.00616C7.42079 9.09941 7.33846 9.2505 7.29476 9.35061C7.24324 9.46878 7.21034 9.57301 7.17101 9.69415L7.07464 9.99358L7.0183 10.3792C6.78692 10.3984 6.45548 10.3209 6.24526 10.2724C6.185 10.2571 6.12681 10.2404 6.06034 10.2212L5.90095 10.1552C5.72822 10.1614 4.82018 9.74101 4.63595 9.65141C4.54487 9.60661 4.41538 9.52844 4.33741 9.49644C4.16169 9.42467 3.63361 9.81644 3.38038 9.83244C3.34243 9.88021 3.16602 9.95633 3.09449 9.96684C3.12002 9.69415 3.16856 9.41895 3.20076 9.14398C3.29897 8.30673 3.28447 8.77873 3.11404 8.39267C3.03814 8.35153 2.55951 7.58147 2.56112 7.43404L2.48016 7.2905C2.459 7.23793 2.43692 7.18947 2.42197 7.13416C2.29616 6.77758 2.19657 6.41461 2.19036 5.98261C2.18369 5.51747 2.28029 5.20593 2.38149 4.8089C2.39736 4.7401 2.44543 4.60798 2.49695 4.55153C2.48936 4.31084 3.02596 3.60181 3.2302 3.37073C3.27735 3.31633 3.29229 3.26421 3.35002 3.25164C3.39441 3.16981 3.46111 3.13073 3.51033 3.07176C3.57634 2.9929 3.59175 2.97324 3.68353 2.93644C3.73321 2.83656 4.19297 2.52547 4.29026 2.46033C4.52509 2.30353 4.72404 2.20387 4.97911 2.07564L5.23672 1.96616C5.32872 1.91701 5.83886 1.73324 5.93845 1.74238C6.00446 1.69347 6.1551 1.66627 6.24526 1.6489C6.41086 1.61324 6.7922 1.52067 6.94722 1.55038C6.99713 1.52136 7.05831 1.52067 7.12041 1.51541C7.53096 1.48387 7.89413 1.48204 8.30767 1.51976C8.70856 1.55518 9.11681 1.62901 9.48688 1.73667C9.65639 1.78718 10.0117 1.88867 10.147 1.97141L10.4531 2.0969C10.5865 2.17233 10.7199 2.23701 10.8609 2.31313C11.0569 2.42078 11.5921 2.80638 11.7413 2.95358C11.9743 3.1833 11.9725 3.17073 12.1892 3.4249C12.4794 3.76593 12.7085 4.11564 12.8815 4.53187L12.9886 4.82993C13.0744 5.06718 13.1285 5.35541 13.1542 5.62284C13.1871 5.96707 13.1538 6.15198 13.125 6.48341C13.0201 6.50741 12.7832 6.4457 12.6639 6.43313ZM6.59555 0.195185L6.26688 0.265356C6.1528 0.283642 6.0132 0.337585 5.90878 0.323413L5.68728 0.393128C5.56883 0.422842 5.42876 0.461699 5.31997 0.495985C5.23004 0.524328 5.05524 0.598842 4.96899 0.610956L4.50692 0.795871C4.48944 0.813242 3.88914 1.11656 3.80404 1.16593C3.4825 1.35381 3.42523 1.4089 3.15751 1.59061C3.04182 1.66947 2.9634 1.74558 2.85622 1.82513C2.60966 2.01027 2.36217 2.30673 2.17679 2.49393C2.08525 2.58673 2.10941 2.59633 2.05697 2.61118C1.99487 2.7321 1.90907 2.80684 1.82834 2.93598C1.79706 2.98627 1.63951 3.21736 1.59811 3.24158L1.1342 4.21187C1.11971 4.27541 1.10775 4.3113 1.08705 4.37507C1.07969 4.39793 1.06819 4.43518 1.05945 4.45576L1.0238 4.51701C1.03875 4.67884 0.685014 5.5017 0.894774 6.73553L1.04013 7.39998C1.0951 7.44981 1.11235 7.56044 1.14432 7.63976C1.17974 7.72593 1.21884 7.81256 1.24138 7.90238L1.62088 8.59358C1.66711 8.67061 1.65492 8.62856 1.66228 8.7017C1.71794 8.73096 1.75842 8.80707 1.79982 8.8649C1.86767 8.9593 1.85824 8.97393 1.83984 9.11176L1.75359 9.63656C1.77107 9.75016 1.74025 9.90033 1.71863 10.0146C1.71426 10.0667 1.71035 10.1156 1.70322 10.1666C1.70023 10.1892 1.69402 10.2242 1.68827 10.2452C1.67378 10.2983 1.68252 10.2724 1.66757 10.2978C1.69218 10.4251 1.58799 11.0555 1.56361 11.2302C1.52934 11.4761 1.45183 11.9076 1.45275 12.1426C1.64158 12.0871 2.27639 11.7698 2.40174 11.7719C2.44314 11.7246 2.42151 11.7412 2.48338 11.7145C2.53789 11.6905 2.54456 11.6928 2.59608 11.6804C2.6476 11.6322 3.27297 11.3746 3.35761 11.3694C3.40821 11.3054 3.67409 11.2155 3.76701 11.1762C3.90938 11.1159 4.02875 11.0576 4.16974 10.9993C4.29509 10.9474 4.44482 11.0624 4.57132 11.1216C4.68356 11.1748 4.91172 11.2384 4.98003 11.3019C5.05271 11.3006 5.48167 11.4503 5.60449 11.483C5.81954 11.5394 6.04355 11.5851 6.26688 11.6327L6.5461 11.677C6.69629 11.7168 6.44882 11.6446 6.58222 11.6896C6.58705 11.6905 6.5967 11.7024 6.59992 11.6971C6.60291 11.6923 6.61166 11.7015 6.61695 11.7054C6.74598 11.677 6.96287 11.7294 7.10408 11.7426C7.13537 11.8814 7.18389 12.0219 7.22966 12.1508C7.27313 12.2743 7.37227 12.4206 7.37503 12.531C7.42126 12.5694 7.40239 12.5479 7.4362 12.6087C7.45069 12.635 7.45828 12.6569 7.47001 12.6804C7.50842 12.7559 7.52912 12.7703 7.55764 12.8516C7.6041 12.8766 7.6508 12.9847 7.69703 13.0526C7.90886 13.365 8.24212 13.6946 8.51789 13.9433C8.64255 14.0562 8.85645 14.1883 8.88613 14.2409L9.33003 14.4996C10.2712 15.0361 11.6043 15.3163 12.6931 15.1849C12.7961 15.1732 12.8953 15.1609 12.9969 15.1442C13.0972 15.1268 13.192 15.1049 13.2867 15.0887C13.3792 15.0615 13.9381 14.906 13.9723 14.9079L14.123 14.8331C14.1821 14.8103 14.2304 14.7892 14.2953 14.7714C14.3155 14.7534 14.8146 14.5179 14.8537 14.5083C14.9183 14.539 15.2505 14.7394 15.2831 14.7714C15.3843 14.8155 15.8609 15.0763 15.9168 15.1447C15.9851 15.1529 15.9423 15.1399 16.0143 15.1762L16.5709 15.4967L16.8149 15.6135C16.8193 15.4708 16.685 14.4427 16.6581 14.2151L16.5286 13.1703C16.5159 13.0722 16.5017 13.074 16.5414 12.9979C16.5546 12.973 16.6141 12.8976 16.6374 12.8779C16.6714 12.7943 16.7277 12.712 16.7751 12.6272C17.4697 11.381 17.2059 10.7719 17.2848 10.4471C17.2632 10.4107 17.2853 10.48 17.2632 10.3979C17.2574 10.3774 17.2593 10.3556 17.2579 10.3346C17.2041 10.0094 17.1466 9.73575 17.035 9.44615C16.9867 9.32044 16.9237 9.17347 16.8646 9.06101C16.8069 8.95061 16.7105 8.81667 16.6758 8.71816C16.4396 8.4185 16.3301 8.22353 16.035 7.94398C15.6355 7.5657 15.6948 7.64547 15.2557 7.30718L14.4652 6.87816C14.5264 6.17096 14.5913 5.77918 14.4507 5.03861C14.4208 4.87976 14.3463 4.65827 14.3332 4.52181C14.3031 4.47176 14.1214 3.96273 14.1046 3.89187C14.0903 3.87656 13.7989 3.32593 13.7778 3.27838C13.6589 3.11861 13.5583 2.93941 13.4351 2.7833L13.0528 2.31267C12.9921 2.30741 13.0277 2.32113 13.0022 2.27427L12.7216 2.00296L12.6991 1.96707L12.3322 1.6825C12.2869 1.6489 12.2676 1.62353 12.2151 1.58627C12.1376 1.53096 11.7627 1.2921 11.7294 1.23473C11.6374 1.22124 11.6188 1.18696 11.5277 1.13713L10.9683 0.845699C10.7491 0.734385 10.4839 0.649585 10.2443 0.557699C9.9669 0.452099 9.76035 0.424213 9.56347 0.361128C9.54185 0.353813 9.53266 0.349699 9.51288 0.340556L9.48022 0.323413C9.38684 0.335299 8.9588 0.234271 8.80861 0.215299C8.55883 0.183071 8.33021 0.162499 8.08457 0.147185C7.82467 0.130956 7.56431 0.133471 7.30441 0.147642C7.16273 0.155413 6.69284 0.218499 6.59555 0.195185ZM9.48803 3.05118L9.40891 3.11153C9.24331 3.21484 9.31277 3.18193 9.20053 3.28616C9.01768 3.45644 9.0692 3.51473 8.98249 3.58238C8.97996 3.75747 8.89924 3.84456 8.93926 4.09598C8.95168 4.17324 8.97536 4.24433 9.00066 4.31084C9.02918 4.38787 9.08117 4.44296 9.08876 4.51473C9.1458 4.55244 9.13268 4.53301 9.16488 4.59747C9.32243 4.73667 9.48182 4.90078 9.80911 4.93713L10.1311 4.91313C10.4945 4.82673 10.7825 4.51907 10.8609 4.14741L10.8825 3.89187L10.8262 3.57233C10.7781 3.53256 10.808 3.56364 10.7728 3.50856C10.7174 3.42147 10.7429 3.42673 10.6385 3.32296L10.4363 3.11336C10.3188 3.09621 10.2553 3.00204 9.97909 2.97667C9.75139 2.95564 9.61361 3.05324 9.48803 3.05118Z" fill="#E61C2D"/>
</svg>
