<svg width="28" height="26" viewBox="0 0 28 26" fill="none" xmlns="http://www.w3.org/2000/svg">
<path fill-rule="evenodd" clip-rule="evenodd" d="M14.8331 18.2974C14.7483 18.3552 14.702 18.4362 14.6133 18.4978C14.5863 18.5171 14.5786 18.5171 14.5516 18.5403C14.5362 18.5518 14.5131 18.5788 14.4977 18.5942L13.688 19.3422C13.6379 19.3846 13.6225 19.3884 13.5724 19.4386L11.6138 21.2313C11.5675 21.2776 11.5483 21.2815 11.4981 21.3239C11.3786 21.4318 11.2784 21.559 11.1473 21.6477C11.1743 21.3123 11.3131 20.5682 11.3709 20.2289C11.4827 19.5581 11.5868 18.7523 11.7063 18.0969C11.7333 17.9427 11.8837 16.7937 11.9415 16.6935L14.0928 14.6887C14.1931 14.6154 14.2972 14.4805 14.4051 14.3918L16.6952 12.2598C16.7184 12.2405 16.7338 12.2251 16.7492 12.2097L17.5049 11.508C17.6475 11.3615 17.7825 11.2497 17.9251 11.107L18.1372 10.9181C18.2104 10.8448 18.2721 10.7716 18.3531 10.7099L18.6577 10.4284C18.7772 10.3282 18.8697 10.2125 18.9969 10.1162L20.1574 9.02122C20.2075 8.97881 20.223 8.97495 20.2731 8.92483L21.4528 7.82989C21.4952 7.79519 21.5222 7.76435 21.5608 7.72579C21.5993 7.68724 21.6225 7.6564 21.6649 7.61784C21.823 7.47519 22.0658 7.27856 22.1854 7.10893C22.4013 6.81206 22.2162 6.30314 21.4374 6.82363C21.0442 7.08965 20.5391 7.38652 20.1189 7.63326L19.9762 7.72194C19.9724 7.72194 19.9646 7.72579 19.9608 7.72965C19.9338 7.74507 19.9338 7.74893 19.9107 7.76435C19.7834 7.84531 19.6408 7.93399 19.5097 8.01495C19.3709 8.09591 19.2437 8.17302 19.1049 8.2617C18.9661 8.35423 18.8234 8.43134 18.6885 8.52001L17.7979 9.0829C17.7555 9.10989 17.7324 9.1176 17.6899 9.14459C17.6437 9.16772 17.6244 9.17929 17.582 9.20628L16.2596 10.0313C16.1131 10.1084 15.9974 10.1933 15.8548 10.2819L14.7328 10.9721C14.6943 10.999 14.6789 11.0106 14.6326 11.0376L12.8205 12.1557C12.7473 12.2058 12.6895 12.2482 12.6201 12.2906L12.0572 12.6376C12.0225 12.6607 12.034 12.653 12.007 12.6684L11.0393 13.2583C10.4764 13.6015 9.92898 13.9639 9.36223 14.2993C9.27741 14.3494 9.23886 14.3803 9.15018 14.4265C9.08078 14.4651 8.99597 14.5075 8.95356 14.5653C8.82247 14.4805 8.03597 14.2492 7.82392 14.1798L4.39645 13.0154C4.13428 12.9268 3.8991 12.8497 3.63693 12.7648L3.28994 12.6492C3.19741 12.6183 2.98536 12.5335 2.88512 12.5219C2.95838 12.4256 3.33621 12.3215 3.47886 12.2521L4.28464 11.9166C4.51597 11.8164 4.74729 11.7123 4.97476 11.6198C5.21765 11.5195 5.45283 11.427 5.68801 11.3229L6.74054 10.8757C6.97187 10.7831 7.19934 10.6598 7.44223 10.5788C7.93958 10.413 9.68223 9.63037 10.2374 9.4029C10.3492 9.35664 10.4687 9.30652 10.5921 9.24869C11.1743 8.99037 11.7757 8.76676 12.3617 8.51616L12.8938 8.28869C13.5338 7.99953 14.1892 7.74893 14.8331 7.46748L18.3646 5.98314C18.9314 5.74411 19.4596 5.48579 20.0379 5.27374L20.3078 5.16579C20.3695 5.13881 20.4157 5.11953 20.4851 5.09254C20.6124 5.04242 20.7242 4.98844 20.8398 4.94218L24.7299 3.31134C24.9343 3.22266 25.2466 3.06844 25.4509 3.02218C25.4509 3.2535 25.154 4.62989 25.1039 4.90362C25.0731 5.06555 25.0422 5.21206 25.0114 5.36242C24.9805 5.51664 24.9574 5.67856 24.9189 5.83278L24.8263 6.33784C24.8225 6.38411 24.8148 6.42652 24.8071 6.46507L23.1261 15.0472C23.1184 15.0819 23.1107 15.1051 23.103 15.1282C23.0991 15.1436 23.0952 15.1976 23.0875 15.24L23.0528 15.4328C23.0297 15.5986 22.9911 15.7451 22.9603 15.9109C22.8369 16.5277 22.7136 17.1677 22.5863 17.7923C22.5439 18.0044 21.6302 22.7658 21.5724 22.9084C21.4374 23.2246 21.048 23.055 20.8745 22.9123C20.3232 22.4612 19.7256 22.0564 19.1743 21.6015C18.8042 21.293 18.4032 21.0039 18.0177 20.7147C17.7555 20.5181 17.1309 20.013 16.9343 19.8819L16.622 19.6468C16.6181 19.6429 16.6143 19.639 16.6104 19.639L16.5217 19.5774C16.4909 19.5504 16.4755 19.5388 16.4408 19.5118C16.3251 19.427 16.2287 19.346 16.1169 19.2651L15.3381 18.6559C15.3073 18.6328 15.2803 18.6174 15.2495 18.5942L14.9333 18.3436C14.8909 18.3128 14.8909 18.3089 14.8331 18.2974ZM7.24946 16.1884C7.25331 16.254 7.26488 16.2694 7.2803 16.3234L7.54633 17.2178C7.60416 17.3913 7.65428 17.588 7.71597 17.7653L8.05524 18.8795C8.36753 19.8048 8.61428 20.7378 8.91886 21.6593C8.9844 21.8482 9.02295 22.0217 9.08464 22.2106C9.22344 22.6154 9.30054 22.8699 9.50488 23.2439L9.64368 23.4636C9.75934 23.6063 9.86344 23.7297 10.0061 23.8376C10.0909 23.8993 10.1256 23.9224 10.2336 23.9687C10.7193 24.1923 11.2205 24.1345 11.6986 23.9301C11.9801 23.8068 12.3617 23.3904 12.647 23.1244L12.8784 22.9162C12.9246 22.8738 12.9478 22.866 12.994 22.8198C13.0172 22.8005 13.0249 22.7928 13.0519 22.7697L13.0711 22.7504C13.075 22.7504 13.0789 22.7427 13.0827 22.7427L13.476 22.3957C13.7073 22.2029 13.9155 21.9754 14.143 21.7788C14.301 21.64 14.4398 21.4858 14.6056 21.3547C14.6519 21.3162 14.6789 21.2853 14.7213 21.239C14.7714 21.1889 14.783 21.1851 14.8369 21.1427C14.887 21.1041 14.9063 21.0733 14.9603 21.0347C15.3266 21.2815 15.8432 21.6863 16.2172 21.9909C16.2866 22.0487 16.3444 22.0795 16.4099 22.1374L18.0408 23.3904C18.1025 23.4444 18.1564 23.4752 18.2181 23.5292L18.3955 23.668C18.4649 23.7181 18.5189 23.7605 18.5844 23.8145C18.6461 23.8607 18.7078 23.8993 18.7656 23.9494C19.0663 24.2077 19.4056 24.4159 19.7102 24.6704L19.8528 24.7822C20.1266 25.0097 20.6817 25.1639 21.0904 25.1639C21.769 25.1639 22.2046 25.0829 22.7405 24.7089L23.1801 24.2848C23.3883 24.0689 23.581 23.695 23.6427 23.3981L24.1632 20.7571C24.2634 20.2521 24.3521 19.7663 24.4524 19.2574C24.4793 19.1263 24.4986 19.0068 24.5256 18.8872C24.541 18.8063 24.5295 18.8217 24.5526 18.7253L24.7184 17.8386C25.2234 15.3364 25.7015 12.7803 26.2066 10.2858C26.2297 10.1624 26.2567 10.0198 26.2683 9.93881C26.2798 9.8617 26.2952 9.81543 26.303 9.76917L26.4225 9.14459C26.4263 9.14073 26.4263 9.13688 26.4263 9.13302L27.4981 3.65447C27.6524 2.87567 27.6562 2.27423 27.2244 1.62652L27.0471 1.4029C26.8543 1.19085 26.5844 1.0482 26.3068 0.944105C25.4509 0.624105 24.5719 1.0829 23.7969 1.40676L22.0042 2.16627C21.9425 2.19326 21.9155 2.20097 21.8499 2.22411C21.8037 2.23953 21.7651 2.26266 21.7189 2.28194L21.0017 2.57495C20.8128 2.65206 20.6355 2.73302 20.4427 2.81784L17.3275 4.12483C17.2311 4.16724 17.1309 4.20194 17.0461 4.24435L15.3574 4.9576C15.1646 5.04242 14.9796 5.11567 14.783 5.20435L13.6533 5.67471C13.5916 5.69784 13.5878 5.70555 13.5184 5.73254C13.449 5.75567 13.4336 5.76724 13.3719 5.79423L7.61958 8.21929C7.56175 8.24628 7.53476 8.25784 7.47307 8.28097L5.52223 9.10989C5.47982 9.12917 5.43356 9.14459 5.38344 9.16387C5.34488 9.17543 5.33717 9.17929 5.30633 9.19086L4.10729 9.69592C3.91452 9.77688 3.73717 9.85399 3.54054 9.93495L2.14103 10.5325C1.89813 10.6366 1.6938 10.7484 1.47018 10.8757L1.34295 10.9605C1.02295 11.1918 0.783917 11.4733 0.625845 11.8434C0.35211 12.4872 0.552592 13.1234 0.94199 13.6477C1.18874 13.9793 1.71693 14.3301 2.11789 14.4689C2.23741 14.5113 2.31838 14.5345 2.43018 14.5807L4.82054 15.3904C5.22151 15.5253 5.61862 15.6834 6.02729 15.7875C6.22006 15.8376 6.43211 15.9186 6.62874 15.988C6.77524 16.0381 7.10681 16.1769 7.24946 16.1884Z" fill="#E61C2D"/>
</svg>
