<svg width="37" height="37" viewBox="0 0 37 37" fill="none" xmlns="http://www.w3.org/2000/svg">
<g clip-path="url(#clip0)">
<path d="M36.8039 27.0101C36.7591 26.9136 36.7173 26.8335 36.6785 26.7693C36.0365 25.6131 34.8098 24.194 32.999 22.5115L32.9607 22.473L32.9416 22.4541L32.9222 22.4348H32.9028C32.0809 21.6513 31.5605 21.1245 31.3426 20.8549C30.9438 20.3411 30.8545 19.8211 31.0724 19.2942C31.2264 18.8961 31.8048 18.0553 32.8062 16.7708C33.333 16.0901 33.7502 15.5445 34.0583 15.1334C36.2803 12.1794 37.2436 10.2918 36.948 9.46973L36.8333 9.27763C36.7562 9.16198 36.5571 9.05618 36.2364 8.95969C35.915 8.86341 35.5041 8.84748 35.0031 8.91165L29.4551 8.94998C29.3652 8.91813 29.2369 8.9211 29.0697 8.95969C28.9027 8.99829 28.8192 9.01765 28.8192 9.01765L28.7226 9.0659L28.646 9.12386C28.5817 9.16218 28.5111 9.22959 28.434 9.32594C28.3572 9.42196 28.2931 9.53464 28.2418 9.66304C27.6378 11.217 26.951 12.6619 26.1802 13.9975C25.705 14.7938 25.2686 15.484 24.87 16.0684C24.472 16.6526 24.1381 17.083 23.8686 17.3589C23.5987 17.6351 23.3551 17.8564 23.1364 18.0235C22.9179 18.1907 22.7512 18.2613 22.6358 18.2355C22.52 18.2097 22.4111 18.184 22.3079 18.1584C22.1282 18.0427 21.9837 17.8854 21.8747 17.6864C21.7653 17.4873 21.6916 17.2368 21.6531 16.935C21.6147 16.633 21.5921 16.3732 21.5856 16.1548C21.5796 15.9367 21.5824 15.6281 21.5954 15.23C21.6087 14.8317 21.6147 14.5622 21.6147 14.4209C21.6147 13.9328 21.6243 13.4031 21.6434 12.8316C21.6628 12.2601 21.6785 11.8072 21.6917 11.4736C21.7048 11.1397 21.7108 10.7864 21.7108 10.414C21.7108 10.0415 21.6882 9.74941 21.6434 9.53741C21.5991 9.32567 21.5311 9.12015 21.4416 8.9209C21.3515 8.72185 21.2197 8.56787 21.0467 8.45856C20.8733 8.34939 20.6578 8.26275 20.4014 8.19838C19.7206 8.04434 18.8538 7.96101 17.8004 7.94805C15.4118 7.92241 13.8769 8.07666 13.1963 8.41059C12.9266 8.55168 12.6825 8.74445 12.4643 8.9883C12.2331 9.27095 12.2008 9.4252 12.3677 9.45057C13.1384 9.56602 13.684 9.84219 14.0051 10.2788L14.1209 10.5102C14.2109 10.6771 14.3007 10.9727 14.3907 11.3964C14.4805 11.8201 14.5385 12.2889 14.564 12.8023C14.6281 13.74 14.6281 14.5427 14.564 15.2104C14.4997 15.8784 14.4389 16.3985 14.381 16.7709C14.323 17.1434 14.2364 17.4452 14.1209 17.6763C14.0051 17.9074 13.9282 18.0487 13.8896 18.1C13.851 18.1513 13.8189 18.1836 13.7934 18.1963C13.6265 18.2603 13.4529 18.2929 13.2732 18.2929C13.0932 18.2929 12.875 18.2028 12.6182 18.023C12.3615 17.8431 12.095 17.596 11.8188 17.2813C11.5427 16.9665 11.2312 16.5267 10.8843 15.9616C10.5377 15.3966 10.1781 14.7288 9.80562 13.9582L9.49746 13.3994C9.30482 13.0399 9.04167 12.5165 8.70774 11.8295C8.37361 11.1423 8.07828 10.4775 7.82154 9.83537C7.71891 9.56568 7.56473 9.36036 7.35927 9.21907L7.26285 9.1611C7.19875 9.10982 7.09585 9.05537 6.9547 8.99734C6.81334 8.93938 6.66584 8.89782 6.51159 8.87225L1.23316 8.91057C0.693769 8.91057 0.32779 9.03277 0.135083 9.27682L0.0579603 9.39227C0.0194326 9.45657 0 9.55927 0 9.70063C0 9.84192 0.0385278 10.0153 0.115651 10.2207C0.886206 12.0317 1.72417 13.7782 2.62954 15.4606C3.5349 17.143 4.32165 18.4982 4.98931 19.5251C5.6571 20.5526 6.33778 21.5224 7.03135 22.434C7.72492 23.3459 8.18401 23.9303 8.40863 24.1871C8.63352 24.4443 8.81017 24.6366 8.93857 24.765L9.42027 25.2272C9.72849 25.5355 10.1811 25.9048 10.7783 26.3349C11.3757 26.7653 12.037 27.1891 12.7626 27.6068C13.4884 28.0238 14.3327 28.3642 15.296 28.6274C16.2592 28.8909 17.1967 28.9966 18.1086 28.9456H20.324C20.7733 28.9068 21.1137 28.7655 21.3451 28.5217L21.4218 28.4251C21.4733 28.3485 21.5216 28.2294 21.5661 28.0691C21.6112 27.9086 21.6336 27.7318 21.6336 27.5394C21.6204 26.9872 21.6624 26.4896 21.7585 26.0466C21.8545 25.6037 21.964 25.2698 22.0864 25.0449C22.2087 24.8202 22.3468 24.6306 22.5004 24.4769C22.6544 24.3228 22.7641 24.2295 22.8285 24.1974C22.8924 24.1651 22.9435 24.1431 22.982 24.13C23.2903 24.0273 23.653 24.1267 24.0708 24.4288C24.4883 24.7306 24.8798 25.1033 25.2461 25.5462C25.6121 25.9895 26.0519 26.4869 26.5655 27.039C27.0795 27.5913 27.5289 28.0019 27.914 28.272L28.2991 28.5032C28.5564 28.6574 28.8903 28.7987 29.3013 28.9271C29.7116 29.0555 30.0711 29.0876 30.3798 29.0234L35.3113 28.9465C35.7991 28.9465 36.1786 28.8657 36.4479 28.7055C36.7176 28.545 36.8779 28.3681 36.9296 28.1757C36.9811 27.9832 36.9839 27.7647 36.9393 27.5204C36.8937 27.2768 36.8487 27.1064 36.8039 27.0101Z" fill="#E61C2D"/>
</g>
<defs>
<clipPath id="clip0">
<rect width="37" height="37" fill="white"/>
</clipPath>
</defs>
</svg>
