<svg width="30" height="30" viewBox="0 0 30 30" fill="none" xmlns="http://www.w3.org/2000/svg">
<path d="M8.75445 3.28238C5.56213 3.28238 2.96508 5.87915 2.96508 9.07119V21.6093C2.96508 24.8016 5.56213 27.3987 8.75445 27.3987H21.2923C24.4846 27.3987 27.0814 24.8016 27.0814 21.6093V9.07119C27.0814 5.87915 24.4846 3.28238 21.2923 3.28238H8.75445ZM24.5866 7.46155C24.5866 8.4509 23.7845 9.25267 22.7955 9.25267C21.8064 9.25267 21.0041 8.4509 21.0041 7.46155C21.0041 6.47248 21.8064 5.67016 22.7955 5.67016C23.7845 5.67016 24.5866 6.47248 24.5866 7.46155ZM15.0232 10.3826C12.2897 10.3826 10.0656 12.6067 10.0656 15.3405C10.0656 18.074 12.2897 20.2981 15.0232 20.2981C17.757 20.2981 19.9811 18.074 19.9811 15.3405C19.9811 12.6067 17.757 10.3826 15.0232 10.3826ZM15.0232 22.7926C10.9141 22.7926 7.57084 19.4499 7.57084 15.3405C7.57084 11.2311 10.9141 7.88786 15.0232 7.88786C19.1324 7.88786 22.4759 11.2311 22.4759 15.3405C22.4759 19.4499 19.1324 22.7926 15.0232 22.7926ZM21.2923 29.8934H8.75445C4.18676 29.8934 0.470581 26.1772 0.470581 21.6093V9.07119C0.470581 4.50378 4.18676 0.787598 8.75445 0.787598H21.2923C25.8599 0.787598 29.5764 4.50378 29.5764 9.07119V21.6093C29.5764 26.1772 25.8599 29.8934 21.2923 29.8934Z" fill="url(#paint0_linear)"/>
<defs>
<linearGradient id="paint0_linear" x1="15.0235" y1="29.8934" x2="15.0235" y2="0.787598" gradientUnits="userSpaceOnUse">
<stop stop-color="#E61C2D"/>
</linearGradient>
</defs>
</svg>
