<svg width="18" height="22" viewBox="0 0 18 22" fill="none" xmlns="http://www.w3.org/2000/svg">
<path d="M8.96745 4.66937C10.0321 4.66937 10.9996 5.12255 11.7005 5.85262C12.4013 6.58268 12.8364 7.59052 12.8364 8.69914C12.8364 9.80811 12.4013 10.816 11.7005 11.546C10.9996 12.2761 10.0321 12.7293 8.9678 12.7293C7.90318 12.7293 6.93565 12.2761 6.23479 11.546C5.53393 10.816 5.09888 9.80811 5.09888 8.6995C5.09888 7.59052 5.53393 6.58268 6.23479 5.85262C6.93565 5.12255 7.90318 4.66937 8.96745 4.66937ZM8.9678 5.57068C8.142 5.57068 7.39112 5.92292 6.8467 6.49002C6.30228 7.05713 5.96414 7.83929 5.96414 8.69914C5.96414 9.55917 6.30228 10.3415 6.8467 10.9086C7.39112 11.4757 8.142 11.828 8.96745 11.828C9.79326 11.828 10.5441 11.4757 11.0886 10.9086C11.633 10.3415 11.9711 9.55917 11.9711 8.6995C11.9711 7.83929 11.633 7.05713 11.0886 6.49002C10.5441 5.92292 9.79326 5.57068 8.9678 5.57068Z" fill="#E61C2D"/>
<path d="M8.96749 0.113098C11.235 0.113098 13.296 1.07894 14.7897 2.63479C16.2833 4.19063 17.2105 6.33756 17.2105 8.69918C17.2105 13.3644 9.293 21.3949 9.27033 21.4181C9.1864 21.5041 9.07703 21.5955 8.96784 21.5955C8.84809 21.597 8.73993 21.498 8.66154 21.4165L8.65652 21.4111C8.38656 21.1358 0.724854 13.2829 0.724854 8.69954C0.724854 6.33756 1.65207 4.19063 3.14568 2.63479C4.63929 1.07894 6.70034 0.113098 8.96749 0.113098ZM8.96784 1.01441C6.93932 1.01441 5.09476 1.87931 3.75759 3.2722C2.42042 4.66509 1.59011 6.5865 1.59011 8.69918C1.59011 12.4728 7.54864 18.9682 8.96853 20.4626C10.3905 18.9666 16.3452 12.4775 16.3452 8.69954C16.3452 6.5865 15.5149 4.66509 14.1777 3.2722C12.8406 1.87931 10.996 1.01441 8.96784 1.01441Z" fill="#E61C2D"/>
</svg>
