<svg width="16" height="16" viewBox="0 0 16 16" fill="none" xmlns="http://www.w3.org/2000/svg">
<path fill-rule="evenodd" clip-rule="evenodd" d="M2.57996 14.0404C2.63148 13.8351 2.71773 13.6155 2.78811 13.4114C2.85642 13.2141 2.92726 13.0013 2.99419 12.8027C3.06641 12.588 3.13518 12.3933 3.20533 12.1816C3.24006 12.077 3.27387 11.9727 3.30998 11.8699C3.36725 11.708 3.33597 11.7268 3.25363 11.6063C1.63995 9.24998 1.90077 6.16861 3.55769 4.2237L3.94685 3.7789C4.35602 3.37547 4.83603 2.99993 5.34778 2.71627C6.08723 2.30621 6.89867 2.0317 7.87985 1.9437C9.94571 1.75695 11.7043 2.67193 12.7103 3.6525C13.9118 4.82415 14.7085 6.48678 14.623 8.33295C14.5377 10.1791 13.7862 11.6077 12.4902 12.7755C11.3706 13.7839 9.52159 14.5384 7.45918 14.237C6.64843 14.1183 5.7144 13.7812 5.05499 13.3371C4.937 13.2578 4.91538 13.2994 4.7622 13.3496L2.57996 14.0404ZM7.26713 6.67124C7.30163 6.52358 7.08405 6.09158 7.02287 5.94644C6.95617 5.78827 6.65027 5.02667 6.58357 4.91901C6.50537 4.79261 6.45109 4.77158 6.25743 4.76107C5.95038 4.74484 5.65092 4.78118 5.45749 4.93798C5.10122 5.22713 4.84086 5.76335 4.79256 6.24313C4.73046 6.86233 4.93792 7.35215 5.16999 7.80518C5.32455 8.10667 5.7627 8.69844 5.98212 8.96678C6.13852 9.15924 6.26042 9.29684 6.43752 9.48884C6.60703 9.67352 6.72295 9.77821 6.92811 9.97684L7.20204 10.2107C7.43756 10.4116 7.80763 10.6445 8.07443 10.8068C8.41713 11.0168 9.03031 11.2532 9.4565 11.3837C10.0216 11.5579 10.5145 11.6829 11.1042 11.4518C11.7682 11.1919 12.1316 10.7906 12.1634 10.0491C12.1721 9.84861 12.1647 9.78872 12.0132 9.71032C11.7947 9.59741 11.575 9.49684 11.3547 9.38964C11.1288 9.27878 10.917 9.17775 10.6904 9.0749C10.1999 8.85295 10.1766 9.05684 9.83094 9.51878C9.49491 9.96724 9.43373 9.98301 8.88173 9.73364C8.40425 9.51695 8.02475 9.23558 7.70068 8.95672C7.61121 8.88107 7.52933 8.78118 7.44952 8.70118C7.2853 8.53524 7.14569 8.36061 7.00263 8.16975C6.60703 7.64107 6.55068 7.54255 6.84784 7.24061C6.94789 7.13981 7.22412 6.85318 7.26713 6.67124ZM0.715576 15.8642L2.24462 15.3823C3.00316 15.1279 3.77067 14.903 4.53013 14.6548C4.89468 14.5355 4.73966 14.5437 5.23991 14.7796C7.30462 15.7526 9.75435 15.7044 11.7788 14.6706C12.4368 14.3346 13.0098 13.924 13.536 13.4175C13.7915 13.1716 14.0376 12.9103 14.2522 12.6296C14.327 12.532 14.3932 12.445 14.468 12.3387C15.1867 11.3092 15.7077 10.0242 15.7893 8.63581C15.9218 6.3805 15.0894 4.28061 13.5661 2.83924C13.3916 2.67467 13.2296 2.53455 13.0367 2.37135C12.5371 1.94987 11.7542 1.50781 11.1182 1.26187C8.95763 0.425068 6.58863 0.620725 4.60971 1.78278C4.26931 1.98233 3.71386 2.37227 3.45005 2.63535C3.40704 2.67901 3.36955 2.70393 3.32194 2.74347C3.10873 2.92061 2.65954 3.43535 2.48129 3.67833C1.15994 5.47581 0.624956 7.70095 1.2225 9.97478C1.36556 10.5197 1.66111 11.282 1.94792 11.7483C2.05924 11.9302 2.05441 11.8943 1.98403 12.1062C1.90031 12.3588 1.81406 12.6148 1.72896 12.8635L0.969266 15.1074C0.889456 15.3478 0.775146 15.6287 0.715576 15.8642Z" fill="#E61C2D"/>
</svg>
